<?xml version="1.0" encoding="UTF-8" standalone="no"?>
<!-- Created with Inkscape (http://www.inkscape.org/) -->

<svg
   xmlns:dc="http://purl.org/dc/elements/1.1/"
   xmlns:cc="http://creativecommons.org/ns#"
   xmlns:rdf="http://www.w3.org/1999/02/22-rdf-syntax-ns#"
   xmlns:svg="http://www.w3.org/2000/svg"
   xmlns="http://www.w3.org/2000/svg"
   xmlns:sodipodi="http://sodipodi.sourceforge.net/DTD/sodipodi-0.dtd"
   xmlns:inkscape="http://www.inkscape.org/namespaces/inkscape"
   id="svg3004"
   version="1.1"
   inkscape:version="0.48.4 r9939"
   width="625"
   height="625"
   xml:space="preserve"
   sodipodi:docname="Material2.png"
   inkscape:export-filename="/home/jacob/Pictures/Material2.png"
   inkscape:export-xdpi="90"
   inkscape:export-ydpi="90"><metadata
     id="metadata3010"><rdf:RDF><cc:Work
         rdf:about=""><dc:format>image/svg+xml</dc:format><dc:type
           rdf:resource="http://purl.org/dc/dcmitype/StillImage" /><dc:title></dc:title></cc:Work></rdf:RDF></metadata><defs
     id="defs3008"><inkscape:path-effect
       effect="spiro"
       id="path-effect3058"
       is_visible="true" /><clipPath
       clipPathUnits="userSpaceOnUse"
       id="clipPath3028"><path
         d="M 0,500 500,500 500,0 0,0 0,500 z"
         id="path3030" /></clipPath></defs><sodipodi:namedview
     pagecolor="#ffffff"
     bordercolor="#666666"
     borderopacity="1"
     objecttolerance="10"
     gridtolerance="10"
     guidetolerance="10"
     inkscape:pageopacity="0"
     inkscape:pageshadow="2"
     inkscape:window-width="1920"
     inkscape:window-height="1016"
     id="namedview3006"
     showgrid="false"
     inkscape:snap-bbox="true"
     inkscape:bbox-paths="true"
     inkscape:bbox-nodes="true"
     inkscape:snap-bbox-edge-midpoints="true"
     inkscape:snap-bbox-midpoints="true"
     inkscape:snap-page="true"
     inkscape:snap-object-midpoints="true"
     inkscape:zoom="1"
     inkscape:cx="-117.18453"
     inkscape:cy="138.39227"
     inkscape:window-x="0"
     inkscape:window-y="0"
     inkscape:window-maximized="1"
     inkscape:current-layer="g3012" /><g
     id="g3012"
     inkscape:groupmode="layer"
     inkscape:label="Untitled-2"
     transform="matrix(1.25,0,0,-1.25,0,625)"><rect
       style="fill:#333333;fill-opacity:1"
       id="rect3052"
       width="500.23001"
       height="500.40948"
       x="-0.23"
       y="-500"
       transform="scale(1,-1)"
       ry="100.08189" /><path
       style="fill:#1a1a1a;fill-opacity:1"
       d="m 281.12682,297.56816 15.20559,-56.36281 c 14.44176,-53.53153 203.66758,62.98826 203.66758,7.54289 L 500,99.84201 C 500,44.396645 455.36341,-0.32607938 399.91811,-0.23987559 L 136.54224,0.1696093 C 81.096947,0.2558131 150.47825,249.46475 199.58116,223.71418 l 50.01314,-26.22791 c 49.10292,-25.75057 17.09076,153.61341 31.53252,100.08189 z"
       id="rect3052-7"
       inkscape:connector-curvature="0"
       sodipodi:nodetypes="sssssssss" /><g
       id="g3016"
       transform="translate(0.207,126.093)"><path
         d="M 1.7213983,-1.5889831 127.2225,-126.46546 467.77095,-91.611152 499.793,123.307 z"
         style="fill:#1a1a1a;fill-opacity:1;fill-rule:nonzero;stroke:none"
         id="path3018"
         inkscape:connector-curvature="0"
         sodipodi:nodetypes="ccccc" /></g><g
       id="g3020"
       transform="translate(13,368)"><path
         d="m 0,0 0,-236 240,0 0,-119 233.54,237 L 240,118.181 240,0 0,0 z"
         style="fill:#000000;fill-opacity:1;fill-rule:nonzero;stroke:none"
         id="path3022" /></g><rect
       style="fill:#1a1a1a;fill-opacity:1"
       id="rect3091"
       width="267.0657"
       height="13.733653"
       x="127.30559"
       y="-5.7223768"
       transform="scale(1,-1)" /><g
       id="g3024"
       transform="matrix(1.0013658,0,0,1.0016498,-0.23,-0.0075353)"><g
         id="g3026"
         clip-path="url(#clipPath3028)"><g
           id="g3032"
           transform="translate(13,368)"><path
             d="m 0,0 0,-236 240,0 0,-119 233.54,237 L 240,118.181 240,0 0,0 z"
             style="fill:none;stroke:#ffffff;stroke-width:26;stroke-linecap:butt;stroke-linejoin:round;stroke-miterlimit:10;stroke-opacity:1;stroke-dasharray:none"
             id="path3034"
             inkscape:connector-curvature="0" /></g></g></g></g></svg>